HIERARCHY
ROOT hip
{
  OFFSET 0 0 0
  CHANNELS 6 Xposition Yposition Zposition Zrotation Yrotation Xrotation
  JOINT abdomen
  {
    OFFSET 0 20.6881 -0.73152
    CHANNELS 3 Zrotation Xrotation Yrotation
    JOINT chest
    {
      OFFSET 0 11.7043 -0.48768
      CHANNELS 3 Zrotation Xrotation Yrotation
      JOINT neck
      {
        OFFSET 0 22.1894 -2.19456
        CHANNELS 3 Zrotation Xrotation Yrotation
        JOINT head
        {
          OFFSET -0.24384 7.07133 1.2192
          CHANNELS 3 Zrotation Xrotation Yrotation
          JOINT leftEye
          {
            OFFSET 4.14528 8.04674 8.04672
            CHANNELS 3 Zrotation Xrotation Yrotation
            End Site
            {
              OFFSET 1 0 0
            }
          }
          JOINT rightEye
          {
            OFFSET -3.6576 8.04674 8.04672
            CHANNELS 3 Zrotation Xrotation Yrotation
            End Site
            {
              OFFSET 1 0 0
            }
          }
        }
      }
      JOINT rCollar
      {
        OFFSET -2.68224 19.2634 -4.8768
        CHANNELS 3 Zrotation Xrotation Yrotation
        JOINT rShldr
        {
          OFFSET -8.77824 -1.95073 1.46304
          CHANNELS 3 Zrotation Xrotation Yrotation
          JOINT rForeArm
          {
            OFFSET -28.1742 -1.7115 0.48768
            CHANNELS 3 Zrotation Xrotation Yrotation
            JOINT rHand
            {
              OFFSET -22.5879 0.773209 7.07136
              CHANNELS 3 Zrotation Xrotation Yrotation
              JOINT rThumb1
              {
                OFFSET -1.2192 -0.487915 3.41376
                CHANNELS 3 Zrotation Xrotation Yrotation
                JOINT rThumb2
                {
                  OFFSET -3.37035 -0.52449 3.41376
                  CHANNELS 3 Zrotation Xrotation Yrotation
                  End Site
                  {
                    OFFSET -1.78271 -1.18214 1.43049
                  }
                }
              }
              JOINT rIndex1
              {
                OFFSET -7.75947 0.938293 5.60832
                CHANNELS 3 Zrotation Xrotation Yrotation
                JOINT rIndex2
                {
                  OFFSET -2.54057 -0.884171 1.56538
                  CHANNELS 3 Zrotation Xrotation Yrotation
                  End Site
                  {
                    OFFSET -1.62519 -0.234802 1.16502
                  }
                }
              }
              JOINT rMid1
              {
                OFFSET -8.24714 1.18213 3.41376
                CHANNELS 3 Zrotation Xrotation Yrotation
                JOINT rMid2
                {
                  OFFSET -3.10165 -0.590103 1.0647
                  CHANNELS 3 Zrotation Xrotation Yrotation
                  End Site
                  {
                    OFFSET -2.48547 -0.328903 0.83742
                  }
                }
              }
              JOINT rRing1
              {
                OFFSET -8.82822 0.546677 1.51678
                CHANNELS 3 Zrotation Xrotation Yrotation
                JOINT rRing2
                {
                  OFFSET -2.60934 -0.819778 -0.0198488
                  CHANNELS 3 Zrotation Xrotation Yrotation
                  End Site
                  {
                    OFFSET -2.33842 -0.294052 0.168128
                  }
                }
              }
              JOINT rPinky1
              {
                OFFSET -8.27202 -0.0477905 -0.4584
                CHANNELS 3 Zrotation Xrotation Yrotation
                JOINT rPinky2
                {
                  OFFSET -1.82734 -0.647385 -0.700984
                  CHANNELS 3 Zrotation Xrotation Yrotation
                  End Site
                  {
                    OFFSET -1.69225 -0.51767 -0.607171
                  }
                }
              }
            }
          }
        }
      }
      JOINT lCollar
      {
        OFFSET 2.68224 19.2634 -4.8768
        CHANNELS 3 Zrotation Xrotation Yrotation
        JOINT lShldr
        {
          OFFSET 8.77824 -1.95073 1.46304
          CHANNELS 3 Zrotation Xrotation Yrotation
          JOINT lForeArm
          {
            OFFSET 28.1742 -1.7115 0.48768
            CHANNELS 3 Zrotation Xrotation Yrotation
            JOINT lHand
            {
              OFFSET 22.5879 0.773209 7.07136
              CHANNELS 3 Zrotation Xrotation Yrotation
              JOINT lThumb1
              {
                OFFSET 1.2192 -0.487915 3.41376
                CHANNELS 3 Zrotation Xrotation Yrotation
                JOINT lThumb2
                {
                  OFFSET 3.37035 -0.52449 3.41376
                  CHANNELS 3 Zrotation Xrotation Yrotation
                  End Site
                  {
                    OFFSET 1.78271 -1.18214 1.43049
                  }
                }
              }
              JOINT lIndex1
              {
                OFFSET 7.75947 0.938293 5.60832
                CHANNELS 3 Zrotation Xrotation Yrotation
                JOINT lIndex2
                {
                  OFFSET 2.54057 -0.884171 1.56538
                  CHANNELS 3 Zrotation Xrotation Yrotation
                  End Site
                  {
                    OFFSET 1.62519 -0.234802 1.16502
                  }
                }
              }
              JOINT lMid1
              {
                OFFSET 8.24714 1.18213 3.41376
                CHANNELS 3 Zrotation Xrotation Yrotation
                JOINT lMid2
                {
                  OFFSET 3.10165 -0.590103 1.0647
                  CHANNELS 3 Zrotation Xrotation Yrotation
                  End Site
                  {
                    OFFSET 2.48547 -0.328903 0.83742
                  }
                }
              }
              JOINT lRing1
              {
                OFFSET 8.82822 0.546677 1.51678
                CHANNELS 3 Zrotation Xrotation Yrotation
                JOINT lRing2
                {
                  OFFSET 2.60934 -0.819778 -0.0198488
                  CHANNELS 3 Zrotation Xrotation Yrotation
                  End Site
                  {
                    OFFSET 2.33842 -0.294052 0.168128
                  }
                }
              }
              JOINT lPinky1
              {
                OFFSET 8.27202 -0.0477905 -0.4584
                CHANNELS 3 Zrotation Xrotation Yrotation
                JOINT lPinky2
                {
                  OFFSET 1.82734 -0.647385 -0.700984
                  CHANNELS 3 Zrotation Xrotation Yrotation
                  End Site
                  {
                    OFFSET 1.69225 -0.51767 -0.607171
                  }
                }
              }
            }
          }
        }
      }
    }
  }
  JOINT rButtock
  {
    OFFSET -8.77824 4.35084 1.2192
    CHANNELS 3 Zrotation Xrotation Yrotation
    JOINT rThigh
    {
      OFFSET 0 -1.70687 -2.19456
      CHANNELS 3 Zrotation Xrotation Yrotation
      JOINT rShin
      {
        OFFSET 0 -36.8199 0.73152
        CHANNELS 3 Zrotation Xrotation Yrotation
        JOINT rFoot
        {
          OFFSET 0.73152 -45.1104 -5.12064
          CHANNELS 3 Zrotation Xrotation Yrotation
          End Site
          {
            OFFSET -1.1221 -3.69964 12.103
          }
        }
      }
    }
  }
  JOINT lButtock
  {
    OFFSET 8.77824 4.35084 1.2192
    CHANNELS 3 Zrotation Xrotation Yrotation
    JOINT lThigh
    {
      OFFSET 0 -1.70687 -2.19456
      CHANNELS 3 Zrotation Xrotation Yrotation
      JOINT lShin
      {
        OFFSET 0 -36.8199 0.73152
        CHANNELS 3 Zrotation Xrotation Yrotation
        JOINT lFoot
        {
          OFFSET -0.73152 -45.1104 -5.12064
          CHANNELS 3 Zrotation Xrotation Yrotation
          End Site
          {
            OFFSET 1.1221 -3.69964 12.103
          }
        }
      }
    }
  }
}
MOTION
Frames:	4
Frame Time:	0.03333
-7.236863719299436 59.96652841567993 10.419349372386932 -12.888934135437012 -25.14423370361328 7.842140197753906 9.664613723754883 8.401644706726074 7.569674491882324 -0.5064648985862732 -6.0334649085998535 2.1415538787841797 -0.6671297550201416 13.006360054016113 2.966991424560547 3.617387056350708 -25.2632999420166 6.500223636627197 0.11824925988912582 -0.0881219431757927 0.06730689853429794 -0.03459545597434044 0.058248355984687805 -0.14182764291763306 -0.02459191344678402 -0.06367726624011993 0.12047253549098969 70.75555419921875 45.615482330322266 -18.180370330810547 -28.250844955444336 -39.69821548461914 83.44266510009766 -0.04117904230952263 5.4570207595825195 0.71685391664505 0.05777126923203468 0.04073849320411682 0.10734565556049347 0.026821771636605263 -0.03454966843128204 -0.04550497606396675 0.058110311627388 0.18475456535816193 0.045083463191986084 7.718533515930176 5.486545085906982 0.4182387888431549 -0.0723690614104271 0.049273423850536346 -0.16164126992225647 2.8063504695892334 0.8141857981681824 0.16092124581336975 -0.08965250104665756 0.04846932366490364 0.013730306178331375 10.327295303344727 0.6775164008140564 0.0998680368065834 0.05246395245194435 -0.10825696587562561 -0.023056507110595703 2.3125929832458496 -0.7358548641204834 -0.2306179702281952 0.05965911224484444 -0.0002744510129559785 -0.05002197250723839 -56.233585357666016 33.69966506958008 -25.375844955444336 28.540067672729492 -38.140254974365234 -80.72740173339844 0.7221773266792297 -23.726634979248047 3.2881104946136475 0.038099199533462524 0.03157539293169975 -0.10065475106239319 -0.12002046406269073 -0.049715299159288406 0.016747767105698586 -0.07752633094787598 0.0868624672293663 0.15932466089725494 -7.712621688842773 5.542879104614258 -0.42490577697753906 0.08118622750043869 0.05942094698548317 0.11563975363969803 -2.938091278076172 0.9509080648422241 -0.1601908951997757 -0.050518691539764404 -0.044225193560123444 -0.09194479137659073 -10.232157707214355 0.694244921207428 -0.09859900921583176 0.02381003089249134 0.05174751207232475 -0.007205831818282604 -2.1654796600341797 -0.6542565226554871 0.21284256875514984 0.04407988488674164 0.07202918827533722 -0.05256025493144989 -3.752955675125122 -0.7642956376075745 -6.449775695800781 -0.29001423716545105 45.179100036621094 2.36983323097229 -13.887081146240234 -20.718137741088867 -34.8663444519043 -0.03800467401742935 -0.08802030980587006 0.01933196745812893 55.85197067260742 -54.6521110534668 50.36368942260742 1.4242675304412842 60.65909957885742 -0.9646773934364319 0.46241113543510437 4.051244735717773 -0.7697807550430298
-7.4506469536572695 59.76752042770386 10.838856128975749 -13.272191047668457 -24.71072006225586 8.14787483215332 10.128254890441895 8.076284408569336 7.763545989990234 -0.5668028593063354 -6.025699615478516 2.2029941082000732 -0.7134539484977722 12.950547218322754 2.8435420989990234 3.6892292499542236 -25.106159210205078 6.264893054962158 0.11690039932727814 -0.10073476284742355 0.06974506378173828 -0.02769479900598526 0.07633998990058899 -0.1506822556257248 -0.02576659806072712 -0.056409623473882675 0.11472196131944656 70.81554412841797 45.9093132019043 -18.01307487487793 -28.232322692871094 -39.681785583496094 83.4457015991211 -0.04299769923090935 5.522350788116455 0.7195346355438232 0.061887193471193314 0.03524862974882126 0.1058059111237526 0.03619401901960373 -0.029972461983561516 -0.04518542438745499 0.05892067775130272 0.1832757294178009 0.03811969608068466 7.718146800994873 5.484157085418701 0.4189823567867279 -0.06331643462181091 0.04981444403529167 -0.16548652946949005 2.8092188835144043 0.808100700378418 0.15301953256130219 -0.09772050380706787 0.05032442882657051 0.013459292240440845 10.3300142288208 0.678583562374115 0.09195559471845627 0.047931406646966934 -0.10586270689964294 -0.020478414371609688 2.322841167449951 -0.7478371858596802 -0.2345471829175949 0.06829812377691269 -0.0048689814284443855 -0.04089970886707306 -56.118873596191406 33.719364166259766 -25.690326690673828 28.550336837768555 -38.10089111328125 -80.6742935180664 0.705542266368866 -23.673999786376953 3.257452964782715 0.04344041272997856 0.017551368102431297 -0.10525954514741898 -0.12222285568714142 -0.05772785469889641 0.021101415157318115 -0.07485455274581909 0.0835224837064743 0.16611124575138092 -7.696970462799072 5.527886867523193 -0.4269343316555023 0.08059591799974442 0.059438664466142654 0.11146993935108185 -2.9341681003570557 0.9467878341674805 -0.1631484478712082 -0.04590222239494324 -0.04660877212882042 -0.09164910763502121 -10.22585391998291 0.6911830902099609 -0.09636083990335464 0.024796798825263977 0.057700127363204956 -0.006503990385681391 -2.1675262451171875 -0.6544337868690491 0.20844505727291107 0.046724364161491394 0.06133013218641281 -0.039351075887680054 -3.398867607116699 -0.1814306527376175 -6.70271635055542 -0.2649165987968445 44.6043586730957 2.3780195713043213 -13.955434799194336 -20.67459487915039 -35.105655670166016 -0.033182960003614426 -0.08371632546186447 0.016890473663806915 57.15537643432617 -54.95980453491211 51.618385314941406 1.5341027975082397 61.58138656616211 -1.0825996398925781 0.49342623353004456 3.441603183746338 -0.9930887222290039
-7.660589134320617 59.556686878204346 11.223494354635477 -13.541741371154785 -24.170106887817383 8.436788558959961 10.459562301635742 7.786032676696777 7.947892189025879 -0.6103851795196533 -6.038204669952393 2.266080141067505 -0.7781185507774353 12.881629943847656 2.687376022338867 3.7405972480773926 -24.9414119720459 5.968965530395508 0.1111033707857132 -0.11264220625162125 0.07390974462032318 -0.02385432831943035 0.09427767992019653 -0.1596279740333557 -0.02568267472088337 -0.052899070084095 0.10932420939207077 70.63390350341797 46.1385612487793 -17.5512638092041 -28.221145629882812 -39.64512252807617 83.40393829345703 -0.046423524618148804 5.630862236022949 0.7263205647468567 0.06523703783750534 0.029412703588604927 0.10224218666553497 0.048094719648361206 -0.02463710308074951 -0.042101532220840454 0.055027253925800323 0.1852099746465683 0.03261879086494446 7.718514442443848 5.480723857879639 0.4193025231361389 -0.05946924537420273 0.048410192131996155 -0.17349420487880707 2.8187479972839355 0.8068056702613831 0.14611653983592987 -0.10343851894140244 0.045431721955537796 0.015671316534280777 10.328092575073242 0.6797398328781128 0.08320894837379456 0.042954470962285995 -0.10681182891130447 -0.018880579620599747 2.3315646648406982 -0.7584501504898071 -0.2411554455757141 0.08059872686862946 -0.010404610075056553 -0.02959590218961239 -56.029685974121094 33.842262268066406 -25.943470001220703 28.534982681274414 -38.09923553466797 -80.71463012695312 0.6965218186378479 -23.74485206604004 3.259169340133667 0.047809869050979614 0.00029815189191140234 -0.10820356011390686 -0.12708289921283722 -0.06762883812189102 0.018687689676880836 -0.07679677754640579 0.07731127738952637 0.1716081202030182 -7.684506416320801 5.507058620452881 -0.42775920033454895 0.08276723325252533 0.06132851913571358 0.10315227508544922 -2.930851459503174 0.9419034123420715 -0.16364876925945282 -0.042043279856443405 -0.05144497752189636 -0.09058960527181625 -10.221026420593262 0.6859249472618103 -0.09190797060728073 0.01719423197209835 0.0589478425681591 -0.0018500356236472726 -2.1715660095214844 -0.6591317057609558 0.20333784818649292 0.05250491946935654 0.049487847834825516 -0.026150399819016457 -3.13962721824646 0.16851098835468292 -6.994560241699219 -0.2504413425922394 44.28435134887695 2.382654905319214 -13.95102596282959 -20.602705001831055 -35.19730758666992 -0.025655198842287064 -0.07258154451847076 0.012118149548768997 58.27112579345703 -55.27490997314453 52.7419319152832 1.658712387084961 62.519683837890625 -1.216249942779541 0.5346317887306213 2.7676968574523926 -1.096101999282837
-7.861913042142987 59.345877170562744 11.569333402439952 -13.829240798950195 -23.69875717163086 8.684789657592773 10.797087669372559 7.501419544219971 8.116961479187012 -0.6601510643959045 -6.047693252563477 2.322042465209961 -0.8301923274993896 12.81155014038086 2.5411853790283203 3.7569217681884766 -24.754669189453125 5.692311763763428 0.09986644983291626 -0.12485020607709885 0.07716565579175949 -0.021624917164444923 0.11063152551651001 -0.16542403399944305 -0.023479687049984932 -0.04820587858557701 0.10475445538759232 70.47228240966797 46.34801483154297 -17.126771926879883 -28.2064151763916 -39.62440490722656 83.3888168334961 -0.05347716063261032 5.690207004547119 0.7334493398666382 0.06758005172014236 0.0216663870960474 0.0991184264421463 0.060048431158065796 -0.021152576431632042 -0.03858668729662895 0.05344396084547043 0.1877284198999405 0.025562027469277382 7.721480846405029 5.480135440826416 0.4192564785480499 -0.0554933100938797 0.04456073045730591 -0.18023128807544708 2.8279428482055664 0.8098962903022766 0.14291365444660187 -0.10745129734277725 0.03736342862248421 0.014952736906707287 10.328900337219238 0.6817388534545898 0.07478933036327362 0.03901108726859093 -0.10534529387950897 -0.015907609835267067 2.339026689529419 -0.7677907347679138 -0.24405214190483093 0.09131497889757156 -0.018391430377960205 -0.017825299873948097 -55.96683120727539 33.97643280029297 -26.174528121948242 28.51058006286621 -38.1126823425293 -80.78205108642578 0.6907266974449158 -23.87287139892578 3.272804021835327 0.04971921071410179 -0.016182979568839073 -0.11049922555685043 -0.13235139846801758 -0.07714688032865524 0.015387141145765781 -0.07762439548969269 0.07112201303243637 0.1716574877500534 -7.675140380859375 5.488516330718994 -0.4306998550891876 0.08404476195573807 0.06453598290681839 0.09576426446437836 -2.927492380142212 0.9361328482627869 -0.16364029049873352 -0.038402900099754333 -0.05600292608141899 -0.09106659144163132 -10.216168403625488 0.682237982749939 -0.08366317301988602 0.00453595956787467 0.0608828142285347 0.005589447915554047 -2.1755197048187256 -0.6622726321220398 0.19680631160736084 0.058644235134124756 0.03778831660747528 -0.01540730707347393 -2.8719310760498047 0.49952074885368347 -7.295535564422607 -0.23303763568401337 44.02321243286133 2.384455919265747 -13.94205379486084 -20.538925170898438 -35.27143096923828 -0.019361913204193115 -0.05983561649918556 0.004971310030668974 59.40708923339844 -55.61758041381836 53.87057876586914 1.7863187789916992 63.460575103759766 -1.3528587818145752 0.5678343772888184 2.1419224739074707 -1.2185826301574707
